<?xml version="1.0" standalone="no"?>
<!DOCTYPE svg PUBLIC "-//W3C//DTD SVG 20010904//EN"
 "http://www.w3.org/TR/2001/REC-SVG-20010904/DTD/svg10.dtd">
<svg version="1.0" xmlns="http://www.w3.org/2000/svg"
 width="515.000000pt" height="515.000000pt" viewBox="0 0 515.000000 515.000000"
 preserveAspectRatio="xMidYMid meet">
<metadata>
Created by potrace 1.14, written by Peter Selinger 2001-2017
</metadata>
<g transform="translate(0.000000,515.000000) scale(0.100000,-0.100000)"
fill="#000000" stroke="none">
<path d="M2196 4848 c-9 -5 -16 -13 -16 -18 0 -5 -15 -41 -34 -82 -71 -154
-166 -369 -166 -376 0 -4 342 -8 761 -9 418 -1 763 -4 766 -6 2 -3 -4 -25 -15
-49 -11 -23 -70 -155 -132 -293 -62 -137 -123 -272 -135 -300 -13 -27 -82
-180 -153 -340 -72 -159 -142 -316 -156 -347 -14 -31 -26 -59 -26 -62 0 -3
184 -5 409 -5 307 0 412 3 418 12 5 7 40 82 78 167 37 85 78 178 91 205 12 28
77 174 144 325 67 151 132 298 145 325 12 28 82 185 155 350 73 165 155 348
181 407 l48 108 -1174 -2 c-662 -1 -1180 -5 -1189 -10z"/>
<path d="M1679 3713 c-50 -111 -54 -122 -137 -308 -44 -99 -108 -243 -142
-320 -34 -77 -72 -162 -85 -190 -35 -77 -445 -1004 -445 -1007 0 -5 2361 -1
2364 4 1 1 23 50 49 108 25 58 73 166 106 240 l61 135 -770 5 -769 5 108 240
c59 132 114 256 123 275 9 19 26 58 38 85 13 28 34 75 47 105 34 77 51 113
133 295 94 209 92 206 139 308 l40 87 -415 0 -415 0 -30 -67z"/>
<path d="M1188 1192 l-48 -16 0 -53 0 -53 -45 0 -45 0 0 -40 c0 -25 5 -40 13
-41 6 -1 27 -1 45 -1 l32 -1 0 -186 c0 -102 5 -203 11 -224 18 -67 70 -100
153 -98 77 1 87 7 83 49 l-2 37 -53 3 c-82 5 -86 16 -87 236 l0 181 75 1 74 0
1 42 1 42 -76 0 -76 0 1 65 c1 36 -1 67 -4 69 -3 2 -27 -4 -53 -12z"/>
<path d="M3478 1193 c-50 -15 -55 -23 -48 -100 1 -19 -4 -22 -46 -25 -44 -3
-47 -5 -49 -32 -1 -38 16 -53 57 -50 l34 3 2 -199 c1 -178 3 -203 21 -238 32
-62 108 -87 202 -67 23 5 28 11 25 28 -3 12 -5 29 -5 38 -1 13 -12 17 -48 17
-33 1 -53 7 -67 22 -20 19 -21 32 -21 208 l0 187 65 1 c36 0 70 3 76 6 8 6 10
26 5 71 -1 4 -34 7 -75 7 l-74 0 -1 67 c0 36 -2 67 -3 68 -2 1 -24 -5 -50 -12z"/>
<path d="M724 1074 c-27 -7 -52 -13 -55 -14 -15 -1 -101 -85 -116 -114 -45
-87 -52 -226 -15 -310 29 -65 88 -120 152 -141 60 -20 208 -17 268 5 30 11 33
15 26 44 -9 43 -16 48 -50 35 -16 -6 -60 -13 -97 -14 -127 -6 -202 49 -215
158 l-4 37 201 0 c214 0 202 -3 204 48 3 68 -27 157 -71 208 -45 53 -148 79
-228 58z m128 -89 c24 -10 55 -62 63 -107 6 -33 5 -38 -11 -39 -75 -3 -276 0
-281 5 -11 11 27 92 56 120 44 42 105 50 173 21z"/>
<path d="M2145 1079 c-98 -22 -155 -82 -155 -164 0 -73 40 -117 150 -168 86
-39 103 -55 105 -103 4 -73 -89 -106 -190 -68 -22 8 -44 16 -49 17 -4 1 -14
-15 -22 -36 -13 -37 -13 -37 18 -53 43 -22 174 -30 224 -14 106 35 153 133
112 231 -19 43 -50 67 -149 112 -81 38 -104 63 -94 107 12 56 94 77 172 45 37
-16 52 -9 53 22 0 6 3 18 6 27 4 11 -3 19 -22 27 -43 16 -125 26 -159 18z"/>
<path d="M1525 1059 c-26 -10 -49 -20 -52 -23 -3 -2 0 -20 6 -39 l11 -34 53
18 c93 32 193 19 212 -28 13 -33 23 -83 16 -87 -3 -2 -37 -7 -76 -11 -170 -17
-265 -92 -265 -210 0 -98 70 -165 173 -166 58 -1 131 25 156 54 20 25 31 21
31 -13 0 -29 1 -30 48 -30 l49 0 -3 215 c-3 186 -6 221 -22 258 -39 87 -100
120 -221 116 -38 -1 -90 -10 -116 -20z m249 -288 c3 -9 4 -41 2 -72 -3 -63
-24 -100 -71 -123 -77 -37 -146 -16 -163 49 -22 77 30 133 138 151 85 14 89
13 94 -5z"/>
<path d="M3045 1061 c-82 -38 -111 -99 -96 -203 3 -20 85 -87 128 -103 92 -35
122 -62 123 -112 0 -38 -26 -69 -66 -79 -36 -9 -122 3 -150 21 -13 8 -25 15
-28 15 -5 0 -26 -67 -26 -82 0 -14 113 -40 171 -39 61 1 134 27 163 60 43 47
54 147 22 196 -23 35 -74 71 -136 95 -72 28 -100 55 -100 96 0 65 90 95 176
59 34 -14 35 -14 45 12 5 15 8 34 7 42 -8 40 -163 54 -233 22z"/>
<path d="M3905 1073 c-60 -12 -155 -111 -175 -181 -64 -227 57 -418 265 -415
46 0 132 13 163 24 30 10 33 14 26 43 -9 43 -16 48 -50 36 -78 -30 -208 -16
-256 27 -27 23 -57 90 -58 126 l0 27 200 0 c171 0 200 2 201 15 1 8 2 21 3 28
7 60 -33 176 -77 218 -51 49 -152 71 -242 52z m151 -94 c33 -20 49 -47 59
-103 7 -34 6 -36 -21 -37 -94 -3 -267 1 -271 5 -11 11 28 93 56 120 49 47 114
53 177 15z"/>
<path d="M4512 1067 c-18 -5 -48 -27 -67 -49 l-35 -38 -1 30 c-1 16 -2 36 -3
43 -1 7 -19 13 -47 15 l-46 3 1 -288 1 -288 53 -3 52 -3 0 191 c0 167 2 195
19 228 23 45 46 66 86 79 53 17 115 -13 138 -67 5 -14 11 -108 13 -210 1 -102
3 -193 3 -202 1 -15 10 -18 51 -18 41 0 50 3 51 18 0 9 1 96 0 192 0 152 3
180 19 215 47 97 168 104 217 12 14 -26 18 -64 19 -217 2 -102 3 -193 3 -202
1 -15 10 -18 51 -18 41 0 50 3 51 18 0 9 1 98 1 198 0 137 -3 194 -16 236 -26
89 -89 138 -181 138 -61 0 -108 -21 -153 -68 l-37 -39 -24 37 c-13 21 -39 45
-58 54 -37 18 -111 20 -161 3z"/>
<path d="M47 1063 c-4 -7 -3 -43 2 -75 1 -3 70 -6 155 -5 l154 2 -16 -21 c-10
-12 -50 -63 -91 -115 -212 -271 -226 -292 -229 -326 l-2 -33 234 0 234 0 4 28
c8 59 12 58 -162 57 -88 0 -160 3 -160 7 0 4 28 43 63 86 205 260 257 334 257
368 l0 34 -219 0 c-121 0 -222 -3 -224 -7z"/>
<path d="M2383 1038 c7 -18 58 -144 112 -280 l98 -247 -18 -41 c-22 -50 -82
-112 -130 -134 -38 -18 -43 -37 -23 -81 14 -31 32 -31 79 -2 122 76 153 129
306 527 51 135 98 255 103 268 9 21 8 22 -49 22 l-58 0 -75 -224 -75 -225 -63
172 c-34 95 -71 196 -82 225 l-19 52 -60 0 -59 0 13 -32z"/>
</g>
</svg>
