<svg xmlns="http://www.w3.org/2000/svg" viewBox="0 0 512 512">	<path class="st1" d="M320,464c8.8,0,16-7.2,16-16V160h-80c-17.7,0-32-14.3-32-32V48H64c-8.8,0-16,7.2-16,16v384 c0,8.8,7.2,16,16,16H320z M0,64C0,28.7,28.7,0,64,0h165.5c17,0,33.3,6.7,45.3,18.7l90.5,90.5c12,12,18.7,28.3,18.7,45.3V448 c0,35.3-28.7,64-64,64H64c-35.3,0-64-28.7-64-64V64z"/> <path class="st1" d="M48,238c0,39.8,21.1,75.3,54,98.4c0,0.2,0,0.4,0,0.6v36c0,14.9,12.1,27,27,27h27v-27c0-5,4-9,9-9s9,4,9,9v27 h36v-27c0-5,4-9,9-9s9,4,9,9v27h27c14.9,0,27-12.1,27-27v-36c0-0.2,0-0.4,0-0.6c32.9-23.1,54-58.6,54-98.4	c0-22.2-6.6-43.1-18.1-61.2h-24.5c-40.6,0-75-27.1-86.2-64.1c-5-0.5-10.1-0.7-15.2-0.7C112.5,112,48,168.4,48,238z M138,292	c-19.9,0-36-16.1-36-36s16.1-36,36-36s36,16.1,36,36S157.9,292,138,292z M246,220c19.9,0,36,16.1,36,36s-16.1,36-36,36 s-36-16.1-36-36S226.1,220,246,220z"/></svg>