<svg xmlns="http://www.w3.org/2000/svg" viewBox="0 0 520 520"><path d="m127.74,520c-4.26,0-8.53-1.63-11.78-4.88L4.88,404.05c-1.66-1.66-2.9-3.59-3.72-5.65,0-.01,0-.02-.01-.04,0,0,0-.02,0-.02-.62-1.59-1.01-3.29-1.11-5.07H.03s0-.06,0-.09c0-.02,0-.03,0-.05,0,0,0-.01,0-.02-.01-.28-.02-.57-.02-.85s0-.57.02-.85c0,0,0,0,0-.02,0-.02,0-.03,0-.05v-.08s0,0,0,0c.11-1.78.49-3.49,1.11-5.07v-.02s.02-.03.02-.04c.81-2.06,2.05-3.98,3.71-5.65l111.08-111.08c6.51-6.51,17.06-6.51,23.56,0,6.51,6.51,6.51,17.06,0,23.56l-82.63,82.63h404.08c9.2,0,16.66,7.46,16.66,16.66s-7.46,16.66-16.66,16.66H56.89l82.63,82.63c6.51,6.51,6.51,17.06,0,23.56-3.25,3.25-7.52,4.88-11.78,4.88Z" style="stroke-width:0px;"/><path d="m308.96,255.47c-4.26,0-8.53-1.63-11.78-4.88l-111.03-111.03c-.14-.14-.27-.28-.41-.42,0,0,0,0-.01-.01-.02-.02-.03-.04-.05-.05-.02-.02-.03-.04-.05-.06h0c-1.3-1.42-2.32-3.01-3.04-4.69,0,0,0-.01,0-.02,0,0,0-.02-.01-.03-.86-2.01-1.33-4.22-1.33-6.54s.45-4.4,1.26-6.36c0,0,0-.01,0-.02,0-.02.01-.03.02-.05.81-1.95,2.01-3.77,3.6-5.36L297.17,4.88c6.51-6.51,17.06-6.51,23.56,0,6.51,6.51,6.51,17.06,0,23.56l-82.63,82.63h265.23c9.2,0,16.66,7.46,16.66,16.66s-7.46,16.66-16.66,16.66H238.11l82.63,82.63c6.51,6.51,6.51,17.06,0,23.56-3.25,3.25-7.52,4.88-11.78,4.88Z" style="stroke-width:0px;"/></svg>