<svg version="1.1" id="Layer_1" xmlns="http://www.w3.org/2000/svg" xmlns:xlink="http://www.w3.org/1999/xlink" x="0px" y="0px" viewBox="0 0 384 512" style="enable-background:new 0 0 384 512;" xml:space="preserve"><path d="M373.1,134.6L253.4,15.3C243.5,5.5,230.2,0,216.3,0H59C26.5,0,0,26.5,0,59v394c0,32.5,26.5,59,59,59h266	c32.5,0,59-26.5,59-59V160.9C384,151.1,380.1,141.6,373.1,134.6z M354.9,151.8h-61.5c-35.8,0-65-29.2-65-65v-59	c2.7,1.3,5.1,3.1,7.3,5.2L354.9,151.8z M359,453c0,9-3.6,17.5-10,24c-6.5,6.5-15,10-24,10H59c-9,0-17.5-3.6-24-10 c-6.5-6.5-10-15-10-24V59c0-9,3.6-17.5,10-24c6.5-6.5,15-10,24-10h144.4v61.8c0,49.6,40.4,90,90,90H359V453z"/><polygon points="311.8,304 204.5,304 204.5,196.7 179.5,196.7 179.5,304 72.2,304 72.2,329 179.5,329 179.5,436.3 204.5,436.3 204.5,329 311.8,329 "/><g><path d="M51.2,180c8.4,5.5,23.3,11.3,37.6,11.3c20.7,0,30.5-10.4,30.5-23.3c0-13.6-8.1-21.1-29.2-28.8 c-28.2-10-41.5-25.6-41.5-44.4c0-25.3,20.4-46,54.1-46c15.9,0,29.8,4.5,38.6,9.7l-7.1,20.7c-6.2-3.9-17.5-9.1-32.1-9.1 c-16.8,0-26.2,9.7-26.2,21.4c0,13,9.4,18.8,29.8,26.6c27.2,10.4,41.1,24,41.1,47.3c0,27.5-21.4,47-58.6,47	c-17.2,0-33-4.2-44.1-10.7L51.2,180z"/></g></svg>