<svg id="a" xmlns="http://www.w3.org/2000/svg" viewBox="0 0 777 711"><path d="m585.47,302h-181c-5.52,0-10,4.48-10,10v181c0,5.52,4.48,10,10,10h181c5.52,0,10-4.48,10-10v-181c0-5.52-4.48-10-10-10Zm-10,181h-161v-161h161v161Z" style="stroke-width:0px;"/><path d="m435.39,462.07c1.95,1.95,4.51,2.93,7.07,2.93s5.12-.98,7.07-2.93l45.43-45.43,45.43,45.43c1.95,1.95,4.51,2.93,7.07,2.93s5.12-.98,7.07-2.93c3.91-3.91,3.91-10.24,0-14.14l-45.43-45.43,45.43-45.43c3.91-3.91,3.91-10.24,0-14.14-3.91-3.91-10.24-3.91-14.14,0l-45.43,45.43-45.43-45.43c-3.91-3.91-10.24-3.91-14.14,0-3.91,3.91-3.91,10.24,0,14.14l45.43,45.43-45.43,45.43c-3.91,3.91-3.91,10.24,0,14.14Z" style="stroke-width:0px;"/><path d="m585.47,510h-181c-5.52,0-10,4.48-10,10v181c0,5.52,4.48,10,10,10h181c5.52,0,10-4.48,10-10v-181c0-5.52-4.48-10-10-10Zm-10,181h-161v-161h161v161Z" style="stroke-width:0px;"/><path d="m435.39,670.07c1.95,1.95,4.51,2.93,7.07,2.93s5.12-.98,7.07-2.93l45.43-45.43,45.43,45.43c1.95,1.95,4.51,2.93,7.07,2.93s5.12-.98,7.07-2.93c3.91-3.91,3.91-10.24,0-14.14l-45.43-45.43,45.43-45.43c3.91-3.91,3.91-10.24,0-14.14-3.91-3.91-10.24-3.91-14.14,0l-45.43,45.43-45.43-45.43c-3.91-3.91-10.24-3.91-14.14,0-3.91,3.91-3.91,10.24,0,14.14l45.43,45.43-45.43,45.43c-3.91,3.91-3.91,10.24,0,14.14Z" style="stroke-width:0px;"/><path d="m372.53,510h-181c-5.52,0-10,4.48-10,10v181c0,5.52,4.48,10,10,10h181c5.52,0,10-4.48,10-10v-181c0-5.52-4.48-10-10-10Zm-10,181h-161v-161h161v161Z" style="stroke-width:0px;"/><path d="m222.46,670.07c1.95,1.95,4.51,2.93,7.07,2.93s5.12-.98,7.07-2.93l45.43-45.43,45.43,45.43c1.95,1.95,4.51,2.93,7.07,2.93s5.12-.98,7.07-2.93c3.91-3.91,3.91-10.24,0-14.14l-45.43-45.43,45.43-45.43c3.91-3.91,3.91-10.24,0-14.14-3.91-3.91-10.24-3.91-14.14,0l-45.43,45.43-45.43-45.43c-3.91-3.91-10.24-3.91-14.14,0-3.91,3.91-3.91,10.24,0,14.14l45.43,45.43-45.43,45.43c-3.91,3.91-3.91,10.24,0,14.14Z" style="stroke-width:0px;"/><path d="m771.45,190.05L391.45,1.05c-2.81-1.4-6.12-1.39-8.93.01L5.52,190.06c-3.38,1.7-5.52,5.16-5.52,8.94v502c0,5.52,4.48,10,10,10h757c5.52,0,10-4.48,10-10V199c0-3.8-2.15-7.26-5.55-8.95Zm-108.45,500.95H114V249h549v442Zm94,0h-74V239c0-5.52-4.48-10-10-10H104c-5.52,0-10,4.48-10,10v452H20V205.17L387.02,21.18l369.98,184.02v485.81Z" style="stroke-width:0px;"/></svg>